<svg width="121" height="144" viewBox="0 0 121 144" fill="none" xmlns="http://www.w3.org/2000/svg">
<g filter="url(#filter0_d_97_32)">
<path d="M110.318 103.85C111.953 105.336 114.483 105.215 115.969 103.581C117.455 101.946 117.334 99.4163 115.7 97.9303L110.318 103.85ZM88.3183 83.8498L110.318 103.85L115.7 97.9303L93.6997 77.9303L88.3183 83.8498Z" fill="#DE0A1E"/>
<path d="M32.5 64.0229C32.5 58.1398 34.8468 52.5235 37.0718 47.2517C39.7059 41.0102 46.0783 29.4164 52.1348 19.3396C55.1567 14.3118 58.0784 9.69751 60.3901 6.35146C61.5492 4.67376 62.5351 3.34379 63.2919 2.44594C63.503 2.19549 63.6866 1.9903 63.843 1.82667C64.003 1.99335 64.1912 2.20286 64.4077 2.45891C65.1703 3.36038 66.1638 4.69291 67.3316 6.37167C69.6608 9.72007 72.6056 14.3336 75.6504 19.359C81.7535 29.4323 88.1697 41.0142 90.8012 47.2515C93.0096 52.4859 95.19 58.1239 95.19 64.0229C95.19 84.7567 81.0734 98.5 63.845 98.5C46.6166 98.5 32.5 84.7567 32.5 64.0229Z" stroke="#DE0A1E" stroke-width="3"/>
<path d="M75.2094 59.9914C77.4866 59.9914 79.3324 61.8372 79.3324 64.1144V65.7981C79.3324 66.8494 79.0039 67.8742 78.3926 68.7295C75.5585 72.6953 70.9306 74.6601 64.6602 74.6601C58.3884 74.6601 53.763 72.6946 50.9357 68.7265C50.3271 67.8724 50 66.8497 50 65.8009V64.1144C50 61.8372 51.8459 59.9914 54.1229 59.9914H75.2094ZM64.6602 38C69.7228 38 73.8269 42.1041 73.8269 47.1667C73.8269 52.2293 69.7228 56.3334 64.6602 56.3334C59.5976 56.3334 55.4935 52.2293 55.4935 47.1667C55.4935 42.1041 59.5976 38 64.6602 38Z" fill="#DE0A1E"/>
</g>
<path fill-rule="evenodd" clip-rule="evenodd" d="M45.7883 46C42.6303 54.186 42.4362 63.2855 45.5267 72.0332C49.0381 81.972 56.1338 89.6006 65.282 93.7706C56.0518 93.5716 47.377 88.0231 42.2389 78.9243C35.8155 67.5496 36.998 54.307 45.7883 46Z" fill="#DE0A1E"/>
<mask id="path-5-inside-1_97_32" fill="white">
<path fill-rule="evenodd" clip-rule="evenodd" d="M115.822 114.245C115.11 114.48 114.327 114.71 113.493 114.956C110.98 115.695 108.004 116.57 105.138 118.11C102.272 119.65 99.8989 121.647 97.8945 123.335C96.7897 124.265 95.7968 125.101 94.8948 125.714C89.9619 130.121 81.9435 134.116 67.8064 130.625C52.032 127.525 52.9853 125.693 52.9853 125.693C53.59 123.244 58.5596 124.541 64.6075 126.119C74.4005 128.674 87.0205 131.967 88.5143 121.292C88.5545 121.005 88.6051 120.727 88.6656 120.458C77.4652 122.163 69.0565 117.398 60.2688 112.419C45.8585 104.254 30.4292 95.5113 0 113.769C19.1925 114.442 27.9588 121.371 37.0782 128.58C44.1568 134.175 51.4482 139.938 63.9934 143.074C90.1854 146.984 96.9574 137.861 104.352 127.899C108.111 122.835 112.031 117.555 118.744 113.659L115.822 114.245Z"/>
</mask>
<path d="M115.822 114.245L115.232 111.304L115.054 111.34L114.882 111.396L115.822 114.245ZM113.493 114.956L112.647 112.078L112.647 112.078L113.493 114.956ZM97.8945 123.335L95.9623 121.04L95.9623 121.04L97.8945 123.335ZM94.8948 125.714L93.2083 123.233L93.0441 123.344L92.8961 123.477L94.8948 125.714ZM67.8064 130.625L68.5257 127.712L68.4557 127.695L68.3849 127.681L67.8064 130.625ZM52.9853 125.693L55.6466 127.077L55.8119 126.76L55.8978 126.412L52.9853 125.693ZM64.6075 126.119L65.365 123.216L64.6075 126.119ZM88.5143 121.292L85.5433 120.876L85.5433 120.876L88.5143 121.292ZM88.6656 120.458L91.5923 121.118L92.558 116.832L88.2144 117.493L88.6656 120.458ZM60.2688 112.419L61.7477 109.809L61.7477 109.809L60.2688 112.419ZM0 113.769L-1.54349 111.196L-10.2354 116.412L-0.105198 116.767L0 113.769ZM37.0782 128.58L38.9385 126.226L38.9385 126.226L37.0782 128.58ZM63.9934 143.074L63.2658 145.985L63.4068 146.02L63.5505 146.041L63.9934 143.074ZM104.352 127.899L101.943 126.111L101.943 126.111L104.352 127.899ZM118.744 113.659L120.25 116.254L118.154 110.718L118.744 113.659ZM114.882 111.396C114.226 111.613 113.492 111.829 112.647 112.078L114.34 117.834C115.162 117.592 115.995 117.347 116.761 117.094L114.882 111.396ZM112.647 112.078C110.161 112.809 106.897 113.759 103.718 115.467L106.557 120.753C109.111 119.381 111.798 118.581 114.34 117.834L112.647 112.078ZM103.718 115.467C100.539 117.175 97.944 119.371 95.9623 121.04L99.8267 125.63C101.854 123.923 104.004 122.124 106.557 120.753L103.718 115.467ZM95.9623 121.04C94.8195 122.002 93.9555 122.725 93.2083 123.233L96.5812 128.195C97.6381 127.477 98.7598 126.528 99.8267 125.63L95.9623 121.04ZM67.0872 133.537C74.5509 135.38 80.5967 135.293 85.5398 134.039C90.49 132.783 94.1465 130.405 96.8935 127.951L92.8961 123.477C90.7102 125.43 87.891 127.253 84.0645 128.223C80.2309 129.196 75.199 129.36 68.5257 127.712L67.0872 133.537ZM52.9853 125.693C50.324 124.308 50.319 124.318 50.3139 124.327C50.3123 124.331 50.3072 124.341 50.3039 124.347C50.2972 124.361 50.2906 124.374 50.284 124.388C50.2708 124.415 50.2577 124.443 50.2448 124.472C50.2191 124.53 50.1942 124.59 50.1707 124.654C50.1235 124.781 50.0818 124.919 50.049 125.067C49.9827 125.367 49.9572 125.692 49.9858 126.03C50.0442 126.721 50.3121 127.309 50.6407 127.77C51.2349 128.603 52.1506 129.198 53.1653 129.693C55.2696 130.719 59.2989 132.01 67.2279 133.568L68.3849 127.681C60.5396 126.139 57.1582 124.964 55.7956 124.3C55.0768 123.949 55.245 123.893 55.5249 124.285C55.6964 124.525 55.9156 124.946 55.9645 125.525C55.9883 125.807 55.9679 126.089 55.9078 126.361C55.8782 126.495 55.84 126.622 55.7954 126.742C55.7732 126.802 55.7494 126.86 55.7245 126.916C55.712 126.944 55.6993 126.971 55.6863 126.998C55.6798 127.012 55.6732 127.025 55.6666 127.038C55.6633 127.045 55.6583 127.055 55.6566 127.058C55.6516 127.068 55.6466 127.077 52.9853 125.693ZM65.365 123.216C62.4323 122.451 59.4195 121.656 57.0651 121.412C55.9074 121.292 54.5557 121.259 53.3256 121.636C51.9121 122.07 50.5316 123.116 50.0728 124.973L55.8978 126.412C55.7413 127.045 55.2088 127.335 55.0862 127.372C55.0815 127.374 55.1068 127.366 55.1702 127.356C55.2332 127.347 55.3234 127.338 55.4449 127.333C55.6929 127.324 56.0222 127.336 56.4454 127.38C58.2389 127.566 60.7349 128.209 63.8501 129.022L65.365 123.216ZM85.5433 120.876C85.2598 122.902 84.5235 123.914 83.7329 124.504C82.8546 125.158 81.5078 125.587 79.5472 125.669C75.5245 125.838 70.3999 124.53 65.365 123.216L63.8501 129.022C68.6081 130.263 74.69 131.879 79.799 131.664C82.4043 131.555 85.1047 130.965 87.3188 129.314C89.6206 127.598 91.022 125.019 91.4854 121.707L85.5433 120.876ZM85.739 119.799C85.6599 120.15 85.5946 120.509 85.5433 120.876L91.4854 121.707C91.5144 121.5 91.5504 121.304 91.5923 121.118L85.739 119.799ZM58.7899 115.029C67.4798 119.953 76.7559 125.305 89.1169 123.424L88.2144 117.493C78.1745 119.02 70.6332 114.843 61.7477 109.809L58.7899 115.029ZM1.54349 116.341C16.3772 107.441 27.201 105.327 35.8499 106.171C44.5918 107.025 51.5296 110.915 58.7899 115.029L61.7477 109.809C54.5977 105.757 46.6157 101.194 36.4331 100.2C26.1574 99.1961 14.052 101.839 -1.54349 111.196L1.54349 116.341ZM38.9385 126.226C34.4046 122.642 29.6834 118.897 23.6019 116.013C17.4687 113.105 10.0722 111.12 0.105198 110.771L-0.105198 116.767C9.12031 117.091 15.7032 118.908 21.0311 121.434C26.4108 123.985 30.6325 127.309 35.2179 130.933L38.9385 126.226ZM64.721 140.164C52.8412 137.194 45.9777 131.79 38.9385 126.226L35.2179 130.933C42.3359 136.559 50.0552 142.682 63.2658 145.985L64.721 140.164ZM101.943 126.111C98.1966 131.158 95.0308 135.349 89.847 138.022C84.719 140.666 77.1837 142.01 64.4362 140.107L63.5505 146.041C76.9951 148.048 85.9417 146.786 92.5964 143.355C99.1953 139.953 103.113 134.602 106.761 129.687L101.943 126.111ZM117.238 111.064C109.928 115.307 105.685 121.071 101.943 126.111L106.761 129.687C110.538 124.6 114.134 119.803 120.25 116.254L117.238 111.064ZM116.412 117.187L119.334 116.6L118.154 110.718L115.232 111.304L116.412 117.187Z" fill="#DE0A1E" mask="url(#path-5-inside-1_97_32)"/>
<defs>
<filter id="filter0_d_97_32" x="27" y="0" width="94.0091" height="112.89" filterUnits="userSpaceOnUse" color-interpolation-filters="sRGB">
<feFlood flood-opacity="0" result="BackgroundImageFix"/>
<feColorMatrix in="SourceAlpha" type="matrix" values="0 0 0 0 0 0 0 0 0 0 0 0 0 0 0 0 0 0 127 0" result="hardAlpha"/>
<feOffset dy="4"/>
<feGaussianBlur stdDeviation="2"/>
<feComposite in2="hardAlpha" operator="out"/>
<feColorMatrix type="matrix" values="0 0 0 0 0 0 0 0 0 0 0 0 0 0 0 0 0 0 0.26 0"/>
<feBlend mode="normal" in2="BackgroundImageFix" result="effect1_dropShadow_97_32"/>
<feBlend mode="normal" in="SourceGraphic" in2="effect1_dropShadow_97_32" result="shape"/>
</filter>
</defs>
</svg>
